<?xml version="1.0" ?><!DOCTYPE svg  PUBLIC '-//W3C//DTD SVG 1.1//EN'  'http://www.w3.org/Graphics/SVG/1.1/DTD/svg11.dtd'><svg height="38.7274mm" style="shape-rendering:geometricPrecision; text-rendering:geometricPrecision; image-rendering:optimizeQuality; fill-rule:evenodd; clip-rule:evenodd" version="1.1" viewBox="0 0 4272 3878" width="42.667mm" xml:space="preserve" xmlns="http://www.w3.org/2000/svg" xmlns:xlink="http://www.w3.org/1999/xlink"><defs><style type="text/css">
   <![CDATA[
    .fil1 {fill:black}
    .fil0 {fill:black;fill-rule:nonzero}
   ]]>
  </style></defs><g id="Layer_x0020_1"><path class="fil0" d="M1371 1579l-246 1172c-3,15 -17,24 -31,21 -10,-2 -18,-10 -20,-20 -8,-26 -179,-614 -251,-819 -65,-187 -538,-82 -540,-82 -14,3 -28,-6 -31,-20 -2,-8 0,-16 5,-22 19,-29 354,-500 1096,-260 13,4 21,17 18,30l0 0zm-276 1059l220 -1046c-559,-171 -866,79 -972,195 145,-22 468,-50 530,129 55,157 168,539 222,722z"/><path class="fil0" d="M315 1683c-1,-1 -254,-224 -79,-425 -69,-36 -203,-130 -100,-282 93,-139 148,-187 168,-202 38,-88 449,-985 1124,-728 38,-17 174,-69 300,-14 148,66 164,144 164,145 2,12 -4,24 -15,29 -30,15 -600,303 -494,410 126,129 427,154 428,155 3,0 6,1 9,2l0 0c2,1 554,280 641,372 54,57 42,87 23,132 -13,32 -30,75 -11,158 9,42 16,110 25,193 29,280 75,730 288,813 288,114 315,114 315,114 15,0 26,12 26,26 0,8 -3,16 -9,21 -33,31 -592,563 -763,656 -178,97 -647,145 -648,145 -15,1 -28,-9 -29,-24 -1,-6 0,-11 3,-16 18,-34 365,-696 405,-897 37,-185 -915,-1074 -1014,-1166 -80,5 -560,37 -591,46 -20,5 -85,42 -117,121 -20,48 -27,110 -6,189 4,14 -4,29 -18,32 -9,3 -18,0 -25,-5l0 0zm-17 -414c-119,110 -60,236 -5,310 -2,-51 7,-95 22,-132 40,-98 126,-145 152,-152 40,-12 611,-48 612,-48l0 0c7,-1 14,2 20,7 3,3 1084,999 1039,1222 -36,181 -307,712 -388,869 123,-15 445,-59 580,-133 145,-79 592,-498 719,-618 -46,-14 -129,-43 -282,-103 -243,-96 -292,-566 -322,-858 -8,-81 -15,-147 -24,-187 -23,-99 -2,-150 14,-189 11,-26 18,-43 -13,-76 -76,-81 -570,-333 -621,-358 -42,-5 -326,-37 -456,-170 -142,-144 371,-423 487,-483 -13,-20 -46,-54 -126,-89 -121,-54 -257,13 -265,17l0 0c-7,4 -14,4 -22,1 -666,-265 -1069,700 -1070,703l0 0c-2,5 -6,9 -11,12 0,0 -47,26 -159,191 -96,142 110,220 111,220l0 0c4,1 7,3 10,7 10,10 9,27 -2,37z"/><path class="fil0" d="M2290 3289c-15,0 -27,-12 -27,-26 0,-15 12,-27 27,-27 2,0 708,1 810,-48 89,-43 238,-140 284,-170l-62 -422 -191 11c-14,1 -27,-10 -28,-24 0,-15 11,-27 25,-28l214 -13c14,-2 26,8 29,22l68 463 0 0c1,10 -3,20 -12,26 -1,1 -195,129 -304,182 -113,56 -831,54 -833,54z"/><path class="fil0" d="M2469 1269c-10,-11 -9,-27 2,-37 11,-10 28,-8 38,3 1,1 426,486 516,574 93,89 159,166 159,166 5,6 7,13 6,20l0 0 -50 567c-1,15 -14,26 -28,25 -15,-2 -26,-15 -24,-29l48 -557c-19,-22 -75,-84 -148,-154 -92,-90 -518,-576 -519,-578z"/><path class="fil0" d="M3122 1916c-12,8 -28,5 -37,-7 -8,-12 -4,-29 8,-37 0,0 99,-65 170,-67 68,-1 161,36 161,36 14,5 21,20 16,34 -1,2 -2,4 -3,5l0 0 -255 380c-8,12 -25,15 -37,7 -12,-8 -15,-25 -7,-37l236 -351c-30,-10 -75,-22 -110,-21 -55,1 -142,58 -142,58z"/><path class="fil0" d="M289 1274c-13,7 -29,2 -36,-11 -7,-13 -1,-29 12,-36 2,-1 786,-403 1547,-453 15,-1 27,10 28,25 1,15 -10,27 -24,28 -751,49 -1525,446 -1527,447z"/><path class="fil0" d="M304 792c1,-14 13,-25 28,-25 15,1 26,14 25,28l-13 239c146,-188 577,-712 1072,-980 12,-6 28,-2 35,11 7,13 2,29 -10,36 -588,318 -1085,1005 -1106,1033 -5,8 -13,13 -23,12 -15,-1 -26,-13 -25,-28l17 -326z"/><path class="fil0" d="M1387 545c-14,1 -27,-10 -28,-24 -2,-15 9,-27 24,-29l254 -24c15,-1 28,10 29,24l0 0c0,2 2,21 20,27l1 1c12,2 34,-40 34,-40 5,-10 16,-16 26,-14l0 0 131 15c15,2 25,15 23,30l-23 193c-2,13 -12,23 -24,24l-264 40c-15,3 -28,-7 -30,-22 -2,-14 7,-27 22,-30l246 -38 18 -147 -88 -11c-16,23 -49,62 -88,50 -1,0 -2,-1 -3,-1 -27,-10 -40,-30 -47,-46l-233 22z"/><g><path class="fil0" d="M1897 571c-14,-1 -25,-14 -25,-28 1,-15 13,-26 28,-25l497 26c15,1 26,13 25,28 0,1 0,2 0,3l-13 98c-2,14 -14,24 -27,23l0 0 -500 -23c-15,-1 -26,-13 -25,-28 0,-15 13,-26 27,-25l476 22 6 -47 -469 -24zm525 4c-2,13 -14,22 -28,22l28 -22z"/></g><g><path class="fil0" d="M346 1797c12,-9 28,-8 38,3 9,11 8,28 -3,37 -2,2 -501,412 -265,1243 40,140 95,256 159,352 133,196 307,304 476,355 170,51 334,45 449,13 41,-12 75,-27 100,-44 102,-69 222,-169 303,-332 81,-165 125,-394 73,-720l0 -1c-1,-7 -44,-347 -244,-690 -7,-13 -3,-29 10,-36 13,-8 29,-3 36,9 203,349 249,697 251,710 53,339 7,578 -79,751 -86,174 -213,280 -320,353 -29,20 -69,37 -116,51 -122,34 -298,41 -478,-13 -180,-54 -365,-169 -505,-377 -67,-99 -124,-220 -166,-367 -245,-864 280,-1296 281,-1297zm1330 906l0 0 0 0z"/></g><g><path class="fil0" d="M1490 1691c3,-14 17,-23 32,-20 14,3 23,17 20,31l-264 1166c-3,14 -17,23 -31,20l-2 0 0 0 -157 -47c-12,-4 -20,-16 -19,-28l1 -78c1,-15 13,-27 27,-26 15,0 26,12 26,26l-1 61 111 33 257 -1138zm-421 1122c0,-2 1,-4 1,-5l-1 5z"/></g><path class="fil0" d="M3384 1952c-14,3 -29,-6 -32,-20 -3,-15 6,-29 20,-32 2,0 654,-162 868,862l0 0c0,2 211,805 -449,963 -1,0 -1,0 -2,1l0 0c-2,0 -468,70 -765,-464 -7,-12 -2,-29 10,-36 13,-7 29,-2 36,11 272,488 687,440 710,436 605,-146 409,-896 409,-898l0 0 -1 -2c-202,-971 -802,-822 -804,-821z"/><path class="fil0" d="M3426 2854c-10,10 -27,9 -37,-1 -10,-11 -10,-27 1,-37 0,-1 178,-172 197,-234 18,-58 -25,-268 -33,-310l0 -1 -1 -2 0 0 0 -2 0 0 0 2c-9,9 -19,19 -29,31 -49,86 -141,290 -142,291 -8,12 -24,16 -36,8 -13,-7 -16,-24 -9,-36 1,-1 108,-171 187,-263 16,-27 27,-42 29,-33l0 0c-3,-15 6,-29 20,-31 11,-3 22,2 28,11 1,2 3,5 4,9l-1 0 1 4 1 1c9,45 54,266 32,337 -23,74 -211,255 -212,256zm127 -587l0 0 0 0 0 0 0 0z"/><path class="fil0" d="M3435 2833c-4,-15 5,-29 19,-33 14,-4 28,5 32,19 1,1 171,636 504,536 16,-7 195,-104 88,-655 -104,-543 -431,-546 -466,-544 -20,6 -152,59 -156,288 -1,15 -13,26 -27,26 -15,0 -26,-12 -26,-27 6,-287 196,-339 197,-339l0 0c2,0 4,-1 6,-1 1,0 405,-33 524,587 119,617 -119,714 -120,715l0 0c-1,0 -2,0 -3,0 -387,118 -571,-571 -572,-572z"/><path class="fil0" d="M819 1956c13,-5 29,1 34,15 6,13 -1,29 -14,34 -2,0 -415,160 -314,824 23,147 68,265 127,358 84,132 196,215 307,262 110,46 220,56 300,44 35,-6 64,-15 84,-28 77,-48 139,-158 170,-308 29,-139 30,-312 -9,-501 -81,-395 -113,-407 -113,-407 -13,-7 -19,-22 -13,-36 6,-13 22,-19 35,-12 0,0 56,23 143,444 40,197 39,377 9,522 -34,165 -105,287 -194,343 -26,16 -62,29 -104,35 -89,14 -208,3 -329,-48 -120,-50 -240,-139 -331,-282 -62,-99 -111,-223 -134,-378 -108,-706 345,-881 346,-881z"/><path class="fil0" d="M1640 521c-14,4 -29,-5 -32,-19 -3,-14 5,-28 20,-32 2,0 731,-178 886,175 1,1 1,2 2,3 5,17 52,159 53,322l123 218c38,-8 123,-29 139,-58 5,-11 8,-25 12,-40l0 0 0 0c13,-52 29,-116 130,-165 75,-37 253,-67 408,-54 116,10 222,44 270,118 6,10 5,23 -3,32l-366 444c-1,1 -2,2 -3,3 -15,14 -232,205 -419,205 -15,0 -26,-12 -26,-27 0,-15 11,-26 26,-26 165,0 364,-173 383,-190l352 -427c-43,-48 -126,-71 -218,-79 -147,-13 -312,15 -381,48 -79,39 -91,89 -102,131l0 0c-4,18 -8,35 -17,51 -32,62 -193,90 -194,90l0 0c-10,2 -22,-3 -27,-13l-135 -239c-3,-4 -5,-9 -5,-15 0,-158 -45,-295 -50,-311 -138,-312 -824,-145 -826,-145z"/><path class="fil0" d="M2654 1236c-9,-11 -7,-28 4,-37 12,-9 28,-8 37,4 1,0 104,129 250,94 71,-18 145,-54 208,-96l0 0c66,-43 120,-92 150,-131 -32,-37 -135,-132 -327,-79 -14,4 -29,-4 -33,-18 -3,-14 5,-29 19,-33 262,-73 386,100 395,113 6,9 7,20 1,30 -30,48 -96,110 -176,162l0 0 0 0c-68,45 -147,84 -225,103 -179,43 -302,-112 -303,-112z"/><path class="fil1" d="M3348 2542c0,0 203,-309 220,-306 16,3 30,36 30,36l-234 343c0,0 -16,-70 -16,-73z"/></g></svg>