<?xml version="1.0" ?><!DOCTYPE svg  PUBLIC '-//W3C//DTD SVG 1.1//EN'  'http://www.w3.org/Graphics/SVG/1.1/DTD/svg11.dtd'><svg height="22.7706mm" style="shape-rendering:geometricPrecision; text-rendering:geometricPrecision; image-rendering:optimizeQuality; fill-rule:evenodd; clip-rule:evenodd" version="1.1" viewBox="0 0 4268 2276" width="42.698mm" xml:space="preserve" xmlns="http://www.w3.org/2000/svg" xmlns:xlink="http://www.w3.org/1999/xlink"><defs><style type="text/css">
   <![CDATA[
    .fil0 {fill:black;fill-rule:nonzero}
   ]]>
  </style></defs><g id="Layer_x0020_1"><path class="fil0" d="M558 369l0 546c0,12 -8,22 -20,25l-18 6 3 41c1,13 -7,24 -19,27 -12,4 -226,73 -240,242 0,2 -1,4 -1,6l-12 48c-2,7 -6,12 -12,16l-149 102 0 0c0,0 -24,17 -11,108 2,13 -5,24 -16,29 -2,1 -15,11 -9,87 4,48 9,88 17,116 7,20 13,33 21,34 4,1 9,4 12,7l0 -1c0,1 169,151 203,158 39,8 880,12 908,12l0 0c4,0 122,-5 179,-203 34,-119 85,-234 141,-319 54,-80 116,-135 177,-143 5,0 9,-1 13,-1 58,-3 115,26 160,87 43,57 76,144 91,261 2,17 4,36 5,55l1440 -100c4,-78 29,-321 172,-339 3,0 6,0 9,1 25,3 134,35 159,296l454 -21 -16 -985c0,-1 0,-2 0,-3l0 0c0,0 14,-117 -250,-165l-1 0 -2200 -308 -264 -37c-40,-2 -917,-34 -926,315l0 0zm-53 526l0 -526 0 0 0 0c9,-406 950,-369 982,-368 1,0 2,1 3,1l266 37 2199 308c1,0 2,0 3,0 295,53 295,203 294,221l16 1008 0 0c1,15 -11,27 -25,27l-504 24 -1 0c-14,1 -27,-10 -28,-24 -17,-250 -98,-272 -112,-274 -118,18 -125,287 -125,309 1,15 -10,27 -25,28l-1490 103 0 0 0 0c-15,1 -27,-10 -28,-25 -1,-28 -3,-54 -7,-78 -13,-107 -43,-185 -80,-236 -34,-46 -75,-67 -116,-65 -3,0 -5,0 -8,1 -45,5 -94,51 -140,120 -54,80 -101,190 -134,303 -69,239 -228,241 -229,241l0 0 0 0c-3,0 -876,-4 -919,-12 -43,-9 -196,-142 -224,-166 -25,-9 -41,-33 -52,-69 -10,-32 -16,-75 -20,-127 -6,-71 11,-107 25,-125 -11,-91 18,-131 29,-142 1,-1 2,-2 4,-3l0 -1 0 0 1 0 142 -98 9 -37c17,-173 197,-256 258,-280l-3 -40c-1,-12 6,-24 19,-28l20 -7z"/><path class="fil0" d="M1666 101c-14,-3 -23,-17 -20,-31 3,-14 17,-24 31,-21 1,0 290,57 315,274 0,2 0,3 0,5l9 442c0,3 -1,6 -2,8l0 0c0,1 -42,141 -250,136 -186,-4 -1222,21 -1225,21 -14,0 -26,-11 -27,-26 0,-15 12,-27 26,-27 3,0 1040,-25 1227,-20 150,3 191,-78 198,-96l-8 -437c-21,-178 -273,-228 -274,-228z"/><path class="fil0" d="M1891 1403c1,14 -9,27 -24,28 -14,2 -27,-9 -28,-23 -1,-1 -42,-434 -126,-456 -101,-26 -291,-36 -291,-36 -15,0 -26,-13 -25,-27 0,-15 13,-26 27,-25 1,0 196,10 302,37 121,32 165,500 165,502z"/><path class="fil0" d="M345 1537l0 0 -1 0c-9,-1 -69,-13 -87,-83 -7,-30 -8,-90 -5,-146 3,-66 12,-130 23,-143 13,-14 194,-27 360,-30 133,-1 260,2 286,16 67,34 -16,293 -16,294l0 1 0 0c-1,0 -32,88 -109,85 -40,-1 -254,3 -371,5l-55 1 -18 1c-1,0 -2,0 -3,0l0 0 0 0c-1,0 -2,0 -4,-1l0 0zm-36 -96c8,35 35,43 42,44l18 0 55 -2 0 0c118,-2 333,-6 374,-4 39,1 57,-50 57,-50l0 0c4,-14 68,-218 41,-232 -17,-9 -134,-11 -260,-9 -155,2 -317,7 -321,11 -4,5 -8,55 -11,111 -2,52 -2,106 5,131z"/><path class="fil0" d="M82 1585c-14,-1 -26,-13 -25,-28 1,-14 13,-25 28,-25 2,0 725,35 1127,-6l320 -51c14,-2 28,7 30,22 2,14 -7,28 -22,30l-320 51c-1,0 -2,1 -2,1 -406,41 -1134,6 -1136,6z"/><path class="fil0" d="M222 1712c6,13 14,25 21,29l1 0c20,7 224,13 415,11 135,-1 261,-8 306,-21 25,-8 44,-15 59,-22 -173,3 -604,10 -802,3zm-2 76c-39,-19 -63,-96 -63,-96l0 0c-1,-3 -1,-6 -1,-9 1,-15 13,-26 28,-25 213,12 912,-3 914,-3l0 0c3,0 6,0 9,1 14,5 21,20 17,33 0,1 -16,53 -144,92 -50,15 -182,22 -321,24 -180,2 -376,-6 -428,-14 -4,0 -8,-1 -11,-3z"/><path class="fil0" d="M348 1130c-14,1 -27,-10 -28,-24 0,-15 11,-28 25,-28 2,-1 491,-32 670,6 3,1 6,2 9,4 7,4 57,36 51,79 -2,10 -9,28 -17,52 -10,26 -23,60 -31,91 -8,29 -14,54 -11,54 49,14 656,-41 658,-42 14,-1 27,10 28,24 2,15 -9,28 -24,29 -1,0 -618,56 -675,40 -44,-11 -43,-62 -27,-119 8,-32 22,-68 32,-96 8,-20 14,-36 14,-40 2,-9 -15,-20 -22,-25 -175,-35 -650,-5 -652,-5z"/><path class="fil0" d="M1062 1154c-14,4 -28,-5 -32,-19 -4,-14 4,-29 18,-32 2,-1 526,-142 687,-157 15,-1 28,9 29,24 1,14 -9,27 -24,28 -156,15 -676,155 -678,156z"/><path class="fil0" d="M1990 400c-14,-2 -25,-15 -23,-29 1,-15 14,-25 28,-24l2233 226c14,1 25,14 24,28 -2,15 -15,25 -29,24l-2233 -225z"/><path class="fil0" d="M2251 424c0,-14 12,-26 26,-26 15,-1 27,11 27,25l8 511c1,14 -11,26 -26,27l0 0 -221 -4c-14,0 -26,-12 -26,-27l0 0 0 -535c0,-14 12,-26 26,-26 15,0 27,12 27,26l0 510 167 2 -8 -483z"/><path class="fil0" d="M2978 498c0,-14 11,-26 26,-26 14,-1 26,11 26,26l7 426c0,14 -12,26 -26,26l-2 0 0 0 -650 -24c-14,-1 -25,-13 -25,-27l0 0 0 -463c0,-14 12,-26 26,-26 15,0 27,12 27,26l0 438 597 22 -6 -398z"/><path class="fil0" d="M2601 444c0,-15 12,-27 26,-27 15,0 27,12 27,26l4 456c0,15 -12,26 -26,27 -15,0 -26,-12 -27,-27l-4 -455z"/><path class="fil0" d="M2805 476c0,-14 12,-26 26,-26 15,0 27,11 27,26l4 437c0,15 -12,27 -26,27 -15,0 -27,-12 -27,-26l-4 -438z"/><path class="fil0" d="M3344 537c0,-14 11,-26 26,-26 14,0 26,11 27,26l5 370 741 34 -8 -324c0,-14 12,-26 26,-26 15,-1 27,11 27,25l8 351c0,1 0,2 0,3 0,14 -13,26 -27,25l-794 -37 0 0c-13,0 -25,-11 -25,-25l-6 -396z"/><path class="fil0" d="M3494 552c0,-15 11,-27 26,-27 15,0 27,11 27,26l8 381c0,14 -11,26 -26,26 -14,1 -26,-11 -27,-25l-8 -381z"/><path class="fil0" d="M3642 552c0,-15 12,-27 26,-27 15,0 27,11 27,26l8 381c1,14 -11,26 -26,26 -14,1 -26,-11 -26,-25l-9 -381z"/><path class="fil0" d="M3782 562c0,-14 12,-26 26,-27 15,0 27,12 27,26l8 381c0,14 -11,26 -26,27 -14,0 -26,-12 -27,-26l-8 -381z"/><path class="fil0" d="M3918 584c-1,-15 11,-27 26,-27 14,0 26,12 26,26l7 364c0,15 -11,27 -26,27 -15,0 -27,-11 -27,-26l-6 -364z"/><path class="fil0" d="M4032 594c0,-15 12,-27 26,-27 15,0 27,12 27,26l7 364c0,15 -12,27 -26,27 -15,0 -27,-11 -27,-26l-7 -364z"/><path class="fil0" d="M2379 687c-14,-1 -26,-13 -25,-28 1,-14 14,-26 28,-25l616 35c15,1 26,14 25,28 -1,15 -13,26 -28,25l-616 -35z"/><path class="fil0" d="M3390 756c-15,-1 -26,-14 -25,-28 2,-15 14,-26 29,-25l772 56c14,1 25,13 24,28 -1,14 -13,25 -28,24l-772 -55z"/><path class="fil0" d="M562 413c-15,1 -27,-10 -28,-25 -1,-14 11,-27 25,-27l1395 -74c15,-1 27,10 28,25 1,14 -11,27 -25,27l-1395 74z"/><path class="fil0" d="M815 123c-4,-14 6,-28 20,-31 14,-3 28,6 31,20l54 245c3,14 -6,28 -21,31 -14,3 -28,-6 -31,-20l-53 -245z"/><path class="fil0" d="M1504 44c3,-14 17,-23 31,-20 14,3 23,17 20,31l-57 282c-3,14 -17,23 -31,20 -14,-3 -24,-17 -21,-31l58 -282z"/><path class="fil0" d="M3053 509c0,-15 11,-27 26,-27 14,0 26,12 26,26l14 914 159 -4 -22 -892c0,-14 12,-26 26,-26 15,-1 27,11 27,25l23 918c0,14 -11,27 -26,27l-212 5 0 0 0 0c-15,0 -27,-11 -27,-26l-14 -940z"/><path class="fil0" d="M2016 1496c-14,0 -27,-11 -27,-26 -1,-14 11,-26 25,-27l1058 -45c14,-1 27,10 27,25 1,15 -11,27 -25,27l-1058 46z"/><path class="fil0" d="M3328 1448c-15,1 -27,-10 -27,-25 -1,-15 10,-27 25,-27l155 -7c15,0 27,11 28,26 0,14 -11,27 -26,27l-155 6z"/><path class="fil0" d="M3708 1437c-15,1 -27,-11 -28,-25 0,-15 11,-27 25,-28l528 -20c14,-1 26,10 27,25 0,14 -11,27 -25,27l-527 21z"/><g><path class="fil0" d="M60 1856c0,-14 11,-26 26,-26 14,0 26,11 27,26 0,1 1,337 250,330l2 0c10,0 190,0 226,-181 3,-14 17,-23 31,-21 14,3 24,17 21,31 -44,225 -267,224 -279,223 -302,9 -304,-381 -304,-382zm304 330l1 0 -1 0z"/></g><path class="fil0" d="M1334 1944c1,-15 14,-25 29,-24 14,2 25,15 23,30 0,1 -37,288 265,273 1,0 2,0 2,0l0 0c1,0 161,11 189,-258l0 -2 0 0c0,-1 68,-384 -152,-473 -13,-4 -96,-24 -143,53 -8,12 -24,16 -36,8 -13,-7 -17,-23 -9,-36 68,-112 190,-79 204,-75 1,0 2,0 3,1 259,104 186,524 185,530 -33,305 -225,305 -242,305 -363,16 -319,-331 -318,-332z"/><path class="fil0" d="M1710 1670c-8,-1 -77,-5 -89,115 -9,77 -6,149 8,200 11,39 28,65 51,67l0 0c2,0 4,0 5,0 17,0 32,-12 44,-34 15,-26 26,-64 31,-110 3,-27 4,-56 4,-86 -2,-53 -10,-88 -20,-112 -15,-33 -28,-39 -31,-39 -1,-1 -2,-1 -3,-1zm-142 109c20,-181 149,-161 149,-161l0 0c14,2 51,16 75,71 13,29 23,71 24,131 1,34 0,65 -3,94 -6,53 -19,98 -38,131 -22,37 -51,59 -88,60 -4,0 -8,0 -12,0l-1 0c-48,-6 -79,-45 -96,-106 -16,-57 -19,-136 -10,-220z"/><path class="fil0" d="M305 2017c-4,-14 4,-29 18,-33 14,-4 28,5 32,19 1,0 8,29 45,30 21,1 38,-4 50,-11 12,-7 19,-16 19,-23 2,-15 15,-25 30,-24 14,2 25,15 23,30 -3,22 -19,46 -45,62 -21,12 -47,20 -79,19 -76,-3 -93,-69 -93,-69z"/><path class="fil0" d="M1883 2081c-15,0 -26,-12 -26,-27 1,-14 13,-26 28,-25 0,0 64,3 68,-12 9,-30 -11,-268 -11,-268 -2,-15 9,-28 24,-29 14,-1 27,10 28,24 0,1 21,248 10,288 -17,55 -121,50 -121,49z"/><path class="fil0" d="M2230 1729c0,-14 12,-26 27,-25 14,0 26,12 25,27 0,0 -9,196 140,216 73,9 131,7 175,-2 51,-11 82,-30 97,-50 10,-14 18,-44 23,-77 8,-51 10,-105 7,-119 -3,-14 6,-28 20,-32 14,-3 28,6 31,20 5,18 3,82 -6,139 -6,41 -17,80 -33,101 -22,29 -63,56 -129,70 -49,10 -112,12 -192,2 -197,-26 -185,-269 -185,-270z"/><path class="fil0" d="M2337 1731c0,-14 12,-26 27,-25 14,0 26,12 25,27 0,0 -9,200 133,214 14,2 25,15 23,29 -1,15 -14,25 -28,24 -192,-19 -180,-268 -180,-269z"/><path class="fil0" d="M3168 1676c0,-14 12,-26 26,-26 15,0 27,12 26,27 0,56 6,116 24,166 11,32 27,60 48,80 19,18 44,29 76,29 20,1 43,-3 68,-12 14,-5 29,2 34,16 5,14 -2,29 -16,34 -32,11 -61,16 -87,15 -46,0 -82,-17 -111,-44 -28,-25 -48,-61 -62,-100 -20,-57 -27,-123 -26,-185z"/><path class="fil0" d="M3316 1649c0,-14 12,-26 27,-26 14,1 26,13 26,27 0,1 -10,327 165,301 3,-1 6,0 10,0 11,2 117,14 132,-182 9,-111 0,-204 -20,-271 -19,-63 -48,-100 -80,-104 -2,0 -3,0 -5,-1 -4,-1 -46,-10 -64,47 -4,14 -19,21 -33,17 -14,-4 -21,-19 -17,-33 31,-98 110,-86 127,-82 53,7 97,58 122,141 22,73 32,172 23,290 -19,242 -164,234 -192,231 -232,30 -221,-353 -221,-355z"/><path class="fil0" d="M3708 1879c-14,-3 -22,-18 -19,-32 4,-14 18,-23 32,-19 0,0 41,10 42,0 3,-36 -11,-217 -11,-217 -1,-15 10,-28 24,-29 15,-1 28,10 29,25 0,0 14,185 10,227 -7,68 -106,45 -107,45z"/><path class="fil0" d="M3590 1494l0 0c1,0 1,0 2,0 43,4 63,73 66,151 1,25 1,51 -1,76 -1,25 -4,49 -8,69 -8,43 -23,73 -47,76 -3,0 -7,1 -10,1 -17,0 -33,-8 -47,-24 -10,-13 -20,-32 -27,-57 -9,-30 -14,-70 -14,-121 0,-8 0,-17 0,-26 3,-61 18,-96 33,-116 19,-25 42,-29 52,-29l0 0 1 0zm-2 53c-1,0 -5,2 -9,8 -10,13 -20,38 -22,86 0,6 0,14 0,24 0,46 4,81 11,106 16,34 25,32 29,9 4,-17 6,-39 8,-62 1,-23 1,-48 0,-71 -2,-51 -7,-96 -17,-100z"/><path class="fil0" d="M2533 1717c-1,-15 11,-27 25,-27 15,-1 27,11 27,25 0,1 4,116 17,125 0,-1 2,-3 4,-6 6,-9 12,-23 17,-41 6,-25 9,-56 9,-91 -1,-14 11,-26 25,-27 15,0 27,12 27,26 1,40 -3,76 -10,105 -6,23 -14,43 -24,57 -13,19 -29,30 -48,30l0 0c-3,0 -7,0 -10,-1l-2 0c-52,-13 -57,-175 -57,-175z"/><path class="fil0" d="M1951 794c0,-15 11,-27 26,-28 14,0 26,11 27,26l40 944c1,14 -10,26 -25,27 -14,0 -27,-11 -27,-25l-41 -944z"/></g></svg>